name ./resultDataOpenSim/trcMotMarkerGrf/sub10/grf-03-07.mot
datacolumns 19
datarows 17
range 1.03200000 1.09600000
endheader

                time	     ground_force_vx	     ground_force_vy	     ground_force_vz	     ground_force_px	     ground_force_py	     ground_force_pz	   l_ground_force_vx	   l_ground_force_vy	   l_ground_force_vz	   l_ground_force_px	   l_ground_force_py	   l_ground_force_pz	     ground_torque_x	     ground_torque_y	     ground_torque_z	   l_ground_torque_x	   l_ground_torque_y	   l_ground_torque_z	
          1.03200000	          0.00000000	          0.00000000	          0.00000000	          0.00000000	          0.00000000	          0.00000000	        -15.14409593	        390.07352812	         19.71860006	          0.02242233	         -0.05000000	         -0.07617546	          0.00000000	          0.00000000	          0.00000000	          0.00000000	         -0.09592843	          0.00000000	
          1.03600000	          0.00000000	          0.00000000	          0.00000000	          0.00000000	          0.00000000	          0.00000000	        -13.73811045	        382.79523183	         19.68744922	          0.02229665	         -0.05000000	         -0.07631653	          0.00000000	          0.00000000	          0.00000000	          0.00000000	         -0.11891135	          0.00000000	
          1.04000000	          0.00000000	          0.00000000	          0.00000000	          0.00000000	          0.00000000	          0.00000000	        -12.39342079	        375.87985912	         19.63731845	          0.02236739	         -0.05000000	         -0.07637007	          0.00000000	          0.00000000	          0.00000000	          0.00000000	         -0.13820316	          0.00000000	
          1.04400000	          0.00000000	          0.00000000	          0.00000000	          0.00000000	          0.00000000	          0.00000000	        -11.08188830	        369.34192840	         19.56639055	          0.02261801	         -0.05000000	         -0.07635956	          0.00000000	          0.00000000	          0.00000000	          0.00000000	         -0.15399972	          0.00000000	
          1.04800000	          0.00000000	          0.00000000	          0.00000000	          0.00000000	          0.00000000	          0.00000000	         -9.75188650	        363.22242824	         19.50130824	          0.02295983	         -0.05000000	         -0.07635379	          0.00000000	          0.00000000	          0.00000000	          0.00000000	         -0.16698421	          0.00000000	
          1.05200000	          0.00000000	          0.00000000	          0.00000000	          0.00000000	          0.00000000	          0.00000000	         -8.34712220	        357.60504842	         19.49735461	          0.02328722	         -0.05000000	         -0.07642904	          0.00000000	          0.00000000	          0.00000000	          0.00000000	         -0.17807627	          0.00000000	
          1.05600000	          0.00000000	          0.00000000	          0.00000000	          0.00000000	          0.00000000	          0.00000000	         -6.81975695	        352.65550425	         19.62473198	          0.02352309	         -0.05000000	         -0.07660780	          0.00000000	          0.00000000	          0.00000000	          0.00000000	         -0.18846927	          0.00000000	
          1.06000000	          0.00000000	          0.00000000	          0.00000000	          0.00000000	          0.00000000	          0.00000000	         -5.13543930	        348.60762199	         19.93507688	          0.02363615	         -0.05000000	         -0.07683341	          0.00000000	          0.00000000	          0.00000000	          0.00000000	         -0.19991512	          0.00000000	
          1.06400000	          0.00000000	          0.00000000	          0.00000000	          0.00000000	          0.00000000	          0.00000000	         -3.27873381	        345.67633193	         20.42038191	          0.02363143	         -0.05000000	         -0.07702706	          0.00000000	          0.00000000	          0.00000000	          0.00000000	         -0.21502173	          0.00000000	
          1.06800000	          0.00000000	          0.00000000	          0.00000000	          0.00000000	          0.00000000	          0.00000000	         -1.25080424	        343.98638588	         21.00690253	          0.02353538	         -0.05000000	         -0.07714787	          0.00000000	          0.00000000	          0.00000000	          0.00000000	         -0.23730564	          0.00000000	
          1.07200000	          0.00000000	          0.00000000	          0.00000000	          0.00000000	          0.00000000	          0.00000000	          0.94069486	        343.57902369	         21.59639947	          0.02339252	         -0.05000000	         -0.07718201	          0.00000000	          0.00000000	          0.00000000	          0.00000000	         -0.27089900	          0.00000000	
          1.07600000	          0.00000000	          0.00000000	          0.00000000	          0.00000000	          0.00000000	          0.00000000	          3.28361878	        344.45727511	         22.11192098	          0.02324719	         -0.05000000	         -0.07712628	          0.00000000	          0.00000000	          0.00000000	          0.00000000	         -0.31998324	          0.00000000	
          1.08000000	          0.00000000	          0.00000000	          0.00000000	          0.00000000	          0.00000000	          0.00000000	          5.75640482	        346.62349441	         22.51501765	          0.02311661	         -0.05000000	         -0.07697560	          0.00000000	          0.00000000	          0.00000000	          0.00000000	         -0.38808916	          0.00000000	
          1.08400000	          0.00000000	          0.00000000	          0.00000000	          0.00000000	          0.00000000	          0.00000000	          8.33290883	        350.09255441	         22.80118702	          0.02300822	         -0.05000000	         -0.07672638	          0.00000000	          0.00000000	          0.00000000	          0.00000000	         -0.47742889	          0.00000000	
          1.08800000	          0.00000000	          0.00000000	          0.00000000	          0.00000000	          0.00000000	          0.00000000	         10.98920992	        354.85982069	         22.99041359	          0.02293184	         -0.05000000	         -0.07639202	          0.00000000	          0.00000000	          0.00000000	          0.00000000	         -0.58844775	          0.00000000	
          1.09200000	          0.00000000	          0.00000000	          0.00000000	          0.00000000	          0.00000000	          0.00000000	         13.69663793	        360.85505925	         23.11831872	          0.02289544	         -0.05000000	         -0.07600889	          0.00000000	          0.00000000	          0.00000000	          0.00000000	         -0.71971176	          0.00000000	
          1.09600000	          0.00000000	          0.00000000	          0.00000000	          0.00000000	          0.00000000	          0.00000000	         16.42160265	        367.96780060	         23.22830861	          0.02290431	         -0.05000000	         -0.07563250	          0.00000000	          0.00000000	          0.00000000	          0.00000000	         -0.86814267	          0.00000000	
